<svg width="110" height="42" viewBox="0 0 110 42" fill="none" xmlns="http://www.w3.org/2000/svg">
<path fill-rule="evenodd" clip-rule="evenodd" d="M41.9995 21.0966L41.9998 21C41.9998 9.40202 32.5977 0 20.9998 0C10.1754 0 1.26384 8.18954 0.12312 18.7105L11.7897 24.4142C12.3614 23.6184 13.2951 23.1 14.3498 23.1C15.2425 23.1 16.0485 23.4714 16.6217 24.068L25.9 16.4134C25.9196 14.6906 27.3223 13.3 29.0498 13.3C30.6569 13.3 31.983 14.5037 32.1757 16.0587L41.9995 21.0966ZM17.4855 25.9482L26.5992 18.4294C27.1767 19.1434 28.0599 19.6 29.0498 19.6C30.191 19.6 31.1904 18.9931 31.7431 18.0845L41.8773 23.2815C40.7402 33.8063 31.8268 42 20.9998 42C9.40178 42 -0.000244141 32.598 -0.000244141 21C-0.000244141 20.9588 -0.00012575 20.9177 0.000110711 20.8766L11.2014 26.3528C11.2557 28.0449 12.6445 29.4 14.3498 29.4C16.0895 29.4 17.4998 27.9897 17.4998 26.25C17.4998 26.1482 17.4949 26.0475 17.4855 25.9482Z" fill="white"/>
<path d="M65.2298 21.124C66.0951 21.2853 66.8064 21.718 67.3638 22.422C67.9211 23.126 68.1998 23.9327 68.1998 24.842C68.1998 25.6633 67.9944 26.3893 67.5838 27.02C67.1878 27.636 66.6084 28.12 65.8458 28.472C65.0831 28.824 64.1811 29 63.1398 29H56.5178V13.644H62.8538C63.8951 13.644 64.7898 13.8127 65.5378 14.15C66.3004 14.4873 66.8724 14.9567 67.2538 15.558C67.6498 16.1593 67.8478 16.8413 67.8478 17.604C67.8478 18.4987 67.6058 19.2467 67.1218 19.848C66.6524 20.4493 66.0218 20.8747 65.2298 21.124ZM59.5978 19.98H62.4138C63.1471 19.98 63.7118 19.8187 64.1078 19.496C64.5038 19.1587 64.7018 18.682 64.7018 18.066C64.7018 17.45 64.5038 16.9733 64.1078 16.636C63.7118 16.2987 63.1471 16.13 62.4138 16.13H59.5978V19.98ZM62.6998 26.492C63.4478 26.492 64.0271 26.316 64.4378 25.964C64.8631 25.612 65.0758 25.1133 65.0758 24.468C65.0758 23.808 64.8558 23.2947 64.4158 22.928C63.9758 22.5467 63.3818 22.356 62.6338 22.356H59.5978V26.492H62.6998ZM69.8625 22.862C69.8625 21.63 70.1045 20.5373 70.5885 19.584C71.0871 18.6307 71.7545 17.8973 72.5905 17.384C73.4411 16.8707 74.3871 16.614 75.4285 16.614C76.3378 16.614 77.1298 16.7973 77.8045 17.164C78.4938 17.5307 79.0438 17.9927 79.4545 18.55V16.812H82.5565V29H79.4545V27.218C79.0585 27.79 78.5085 28.2667 77.8045 28.648C77.1151 29.0147 76.3158 29.198 75.4065 29.198C74.3798 29.198 73.4411 28.934 72.5905 28.406C71.7545 27.878 71.0871 27.1373 70.5885 26.184C70.1045 25.216 69.8625 24.1087 69.8625 22.862ZM79.4545 22.906C79.4545 22.158 79.3078 21.52 79.0145 20.992C78.7211 20.4493 78.3251 20.0387 77.8265 19.76C77.3278 19.4667 76.7925 19.32 76.2205 19.32C75.6485 19.32 75.1205 19.4593 74.6365 19.738C74.1525 20.0167 73.7565 20.4273 73.4485 20.97C73.1551 21.498 73.0085 22.1287 73.0085 22.862C73.0085 23.5953 73.1551 24.2407 73.4485 24.798C73.7565 25.3407 74.1525 25.7587 74.6365 26.052C75.1351 26.3453 75.6631 26.492 76.2205 26.492C76.7925 26.492 77.3278 26.3527 77.8265 26.074C78.3251 25.7807 78.7211 25.37 79.0145 24.842C79.3078 24.2993 79.4545 23.654 79.4545 22.906ZM90.2286 29.198C89.2313 29.198 88.3366 29.022 87.5446 28.67C86.7526 28.3033 86.122 27.812 85.6526 27.196C85.198 26.58 84.9486 25.898 84.9046 25.15H88.0066C88.0653 25.6193 88.2926 26.008 88.6886 26.316C89.0993 26.624 89.6053 26.778 90.2066 26.778C90.7933 26.778 91.248 26.6607 91.5706 26.426C91.908 26.1913 92.0766 25.8907 92.0766 25.524C92.0766 25.128 91.8713 24.8347 91.4606 24.644C91.0646 24.4387 90.4266 24.2187 89.5466 23.984C88.6373 23.764 87.8893 23.5367 87.3026 23.302C86.7306 23.0673 86.232 22.708 85.8066 22.224C85.396 21.74 85.1906 21.0873 85.1906 20.266C85.1906 19.5913 85.3813 18.9753 85.7626 18.418C86.1586 17.8607 86.716 17.4207 87.4346 17.098C88.168 16.7753 89.026 16.614 90.0086 16.614C91.4606 16.614 92.6193 16.9807 93.4846 17.714C94.35 18.4327 94.8266 19.408 94.9146 20.64H91.9666C91.9226 20.156 91.7173 19.7747 91.3506 19.496C90.9986 19.2027 90.522 19.056 89.9206 19.056C89.3633 19.056 88.9306 19.1587 88.6226 19.364C88.3293 19.5693 88.1826 19.8553 88.1826 20.222C88.1826 20.6327 88.388 20.948 88.7986 21.168C89.2093 21.3733 89.8473 21.586 90.7126 21.806C91.5926 22.026 92.3186 22.2533 92.8906 22.488C93.4626 22.7227 93.954 23.0893 94.3646 23.588C94.79 24.072 95.01 24.7173 95.0246 25.524C95.0246 26.228 94.8266 26.8587 94.4306 27.416C94.0493 27.9733 93.492 28.4133 92.7586 28.736C92.04 29.044 91.1966 29.198 90.2286 29.198ZM108.883 22.642C108.883 23.082 108.854 23.478 108.795 23.83H99.8849C99.9582 24.71 100.266 25.3993 100.809 25.898C101.352 26.3967 102.019 26.646 102.811 26.646C103.955 26.646 104.769 26.1547 105.253 25.172H108.575C108.223 26.3453 107.548 27.3133 106.551 28.076C105.554 28.824 104.329 29.198 102.877 29.198C101.704 29.198 100.648 28.9413 99.7089 28.428C98.7849 27.9 98.0589 27.1593 97.5309 26.206C97.0176 25.2527 96.7609 24.1527 96.7609 22.906C96.7609 21.6447 97.0176 20.5373 97.5309 19.584C98.0442 18.6307 98.7629 17.8973 99.6869 17.384C100.611 16.8707 101.674 16.614 102.877 16.614C104.036 16.614 105.07 16.8633 105.979 17.362C106.903 17.8607 107.614 18.572 108.113 19.496C108.626 20.4053 108.883 21.454 108.883 22.642ZM105.693 21.762C105.678 20.97 105.392 20.3393 104.835 19.87C104.278 19.386 103.596 19.144 102.789 19.144C102.026 19.144 101.381 19.3787 100.853 19.848C100.34 20.3027 100.024 20.9407 99.9069 21.762H105.693Z" fill="white"/>
</svg>
